<svg width="121" height="120" viewBox="0 0 121 120" fill="none" xmlns="http://www.w3.org/2000/svg">

    <g id="js">
        <path d="M8.11639 7.5H113.116V112.5H8.11639V7.5Z" fill="#F5DE19"/>
        <path d="M78.6501 89.5312C79.5448 91.3485 80.9347 92.8759 82.6598 93.9375C84.3848 94.9991 86.3747 95.5515 88.4001 95.5313C92.4876 95.5313 95.1014 93.4875 95.1014 90.6562C95.1014 87.2812 92.4164 86.0738 87.9164 84.105L85.4489 83.0475C78.3239 80.0138 73.5989 76.215 73.5989 68.1825C73.5989 60.7838 79.2239 55.1475 88.0476 55.1475C90.904 54.9412 93.7579 55.5805 96.2534 56.9856C98.7488 58.3907 100.775 60.4994 102.08 63.0488L94.3664 67.98C93.864 66.716 92.9892 65.6345 91.858 64.879C90.7268 64.1236 89.3927 63.7298 88.0326 63.75C87.4392 63.6906 86.84 63.7555 86.273 63.9404C85.7061 64.1254 85.1839 64.4265 84.7397 64.8244C84.2956 65.2224 83.9392 65.7085 83.6932 66.2518C83.4473 66.7951 83.3173 67.3837 83.3114 67.98C83.3114 70.9388 85.1451 72.1388 89.3789 73.98L91.8464 75.0375C100.231 78.6338 104.971 82.2975 104.971 90.5363C104.971 99.42 97.9926 104.287 88.6214 104.287C84.97 104.52 81.3293 103.691 78.1387 101.901C74.948 100.11 72.3438 97.4342 70.6401 94.1963L78.6501 89.5312ZM43.7939 90.3863C45.3426 93.135 46.7526 95.46 50.1426 95.46C53.3826 95.46 55.4301 94.1925 55.4301 89.2612V55.71H65.2964V89.3925C65.2964 99.6075 59.2964 104.257 50.5626 104.257C47.4755 104.426 44.4095 103.657 41.7677 102.051C39.126 100.444 37.0321 98.0761 35.7614 95.2575L43.7939 90.3863Z"
              fill="black"/>
    </g>

    <g id="css">
        <path d="M22.3653 101.154L13.9428 7.4375H106.523L98.089 101.139L60.1765 111.562L22.3653 101.154Z"
              fill="#1572B6"/>
        <path d="M60.2328 103.597L90.8703 95.174L98.0778 15.1019H60.2328V103.597Z" fill="#33A9DC"/>
        <path d="M60.2328 49.054H75.5703L76.6278 37.2842H60.2328V25.7896H89.2953L89.0178 28.8724L86.1715 60.5487H60.2328V49.054Z"
              fill="white"/>
        <path d="M60.304 78.9045L60.2515 78.9193L47.344 75.4609L46.519 66.2942H34.8828L36.5065 84.3413L60.2478 90.8788L60.304 90.864V78.9045Z"
              fill="#EBEBEB"/>
        <path d="M74.584 60.0615L73.189 75.4534L60.2628 78.9119V90.8714L84.0228 84.3412L84.199 82.4001L86.2128 60.0615H74.584Z"
              fill="white"/>
        <path d="M60.274 25.7896V37.2842H32.2765L32.044 34.6997L31.5153 28.8724L31.2378 25.7896H60.274ZM60.2328 49.054V60.5487H47.4865L47.254 57.9642L46.729 52.1369L46.4515 49.054H60.2328Z"
              fill="#EBEBEB"/>
    </g>

    <g id="html">
        <path d="M22.9817 102.004L14.5554 7.5H107.143L98.7054 101.989L60.7929 112.5L22.9817 102.004Z" fill="#E44F26"/>
        <path d="M60.8492 104.468L91.4867 95.9738L98.6942 15.2288H60.8492V104.468Z" fill="#F1662A"/>
        <path d="M60.8492 50.2762H45.5117L44.4542 38.4075H60.8492V26.8162H31.7867L32.0642 29.9287L34.9104 61.8675H60.8492V50.2762ZM60.8492 80.3775L60.7967 80.3925L47.8892 76.9087L47.0642 67.665H35.4279L37.0517 85.86L60.7967 92.4525L60.8492 92.4375V80.3775Z"
              fill="#EBEBEB"/>
        <path d="M60.8079 50.2762V61.8675H75.0804L73.7379 76.9012L60.8079 80.3887V92.4487L84.5717 85.86L84.7442 83.9025L87.4667 53.3887L87.7517 50.2762H60.8079ZM60.8079 26.8162V38.4075H88.8054L89.0379 35.805L89.5667 29.9287L89.8442 26.8162H60.8079Z"
              fill="white"/>
    </g>

    <g id="github">
        <path fill-rule="evenodd" clip-rule="evenodd"
              d="M44 0C19.69 0 0 19.69 0 44C0 63.47 12.595 79.915 30.085 85.745C32.285 86.13 33.11 84.81 33.11 83.655C33.11 82.61 33.055 79.145 33.055 75.46C22 77.495 19.14 72.765 18.26 70.29C17.765 69.025 15.62 65.12 13.75 64.075C12.21 63.25 10.01 61.215 13.695 61.16C17.16 61.105 19.635 64.35 20.46 65.67C24.42 72.325 30.745 70.455 33.275 69.3C33.66 66.44 34.815 64.515 36.08 63.415C26.29 62.315 16.06 58.52 16.06 41.69C16.06 36.905 17.765 32.945 20.57 29.865C20.13 28.765 18.59 24.255 21.01 18.205C21.01 18.205 24.695 17.05 33.11 22.715C36.63 21.725 40.37 21.23 44.11 21.23C47.85 21.23 51.59 21.725 55.11 22.715C63.525 16.995 67.21 18.205 67.21 18.205C69.63 24.255 68.09 28.765 67.65 29.865C70.455 32.945 72.16 36.85 72.16 41.69C72.16 58.575 61.875 62.315 52.085 63.415C53.68 64.79 55.055 67.43 55.055 71.555C55.055 77.44 55 82.17 55 83.655C55 84.81 55.825 86.185 58.025 85.745C66.7597 82.796 74.3497 77.1822 79.7268 69.6937C85.1039 62.2052 87.9974 53.219 88 44C88 19.69 68.31 0 44 0Z"
              fill="black"/>
    </g>

    <g id="git">

        <path d="M103.62 47.8219L57.7758 1.98038C55.1372 -0.6598 50.8552 -0.6598 48.2134 1.98038L38.6937 11.5001L50.7699 23.5763C53.5762 22.6281 56.7943 23.2642 59.0313 25.5012C61.2789 27.7525 61.9106 30.9981 60.9393 33.8134L72.5775 45.452C75.3932 44.482 78.6421 45.1095 80.891 47.3621C84.034 50.5039 84.034 55.596 80.891 58.7399C77.7471 61.8841 72.655 61.8841 69.5095 58.7399C67.1454 56.3733 66.5613 52.9013 67.7582 49.9888L56.9046 39.1352L56.9034 67.6973C57.6902 68.0863 58.4088 68.6002 59.0313 69.2189C62.1743 72.3607 62.1743 77.4532 59.0313 80.5995C55.8874 83.7422 50.7929 83.7422 47.6535 80.5995C44.5105 77.4532 44.5105 72.3611 47.6535 69.2193C48.4067 68.4658 49.3019 67.869 50.2872 67.4635V38.6352C49.3004 38.2324 48.4048 37.6353 47.6535 36.8793C45.2722 34.5013 44.6996 31.0071 45.9198 28.0831L34.0154 16.1775L2.58106 47.6099C-0.0603455 50.2525 -0.0603455 54.5349 2.58106 57.1755L48.4259 103.018C51.0652 105.658 55.3464 105.658 57.9891 103.018L103.619 57.3884C106.26 54.747 106.26 50.4621 103.619 47.8219"
              fill="#DE4C36"/>
    </g>

    <g id="react">
        <path d="M93.1056 32.7027C91.9031 32.2887 90.6904 31.9051 89.4687 31.5523C89.6739 30.7106 89.8628 29.8792 90.0305 29.0623C92.7838 15.6483 90.9839 4.84178 84.8361 1.28375C78.9416 -2.12722 69.3016 1.42949 59.5659 9.93342C58.6064 10.773 57.6682 11.6368 56.7521 12.524C56.1389 11.934 55.5149 11.3556 54.8803 10.7888C44.6767 1.69616 34.4493 -2.13608 28.3081 1.43215C22.4189 4.85374 20.675 15.0127 23.1538 27.7254C23.4004 28.9844 23.6788 30.237 23.9888 31.4819C22.5411 31.8947 21.1442 32.3342 19.8073 32.8019C7.84441 36.9881 0.204742 43.5483 0.204742 50.3529C0.204742 57.3808 8.40627 64.43 20.8661 68.7043C21.8763 69.0495 22.8948 69.3692 23.9209 69.6634C23.5876 71.0042 23.2918 72.354 23.0337 73.7114C20.6706 86.2035 22.516 96.1223 28.3893 99.5222C34.4555 103.033 44.637 99.4247 54.5506 90.7268C55.3545 90.0196 56.1407 89.2925 56.9084 88.546C57.9004 89.5066 58.9189 90.4393 59.9627 91.343C69.566 99.6365 79.0501 102.985 84.9177 99.5762C90.9782 96.055 92.948 85.3995 90.3907 72.4356C90.1892 71.42 89.9633 70.4094 89.7132 69.4047C90.4282 69.1921 91.13 68.9732 91.8141 68.7455C104.767 64.4384 113.195 57.4747 113.195 50.3529C113.195 43.5234 105.309 36.919 93.1056 32.7027ZM90.2962 64.1474C89.6783 64.3525 89.0445 64.5505 88.3983 64.7432C86.9683 60.1995 85.0386 55.3684 82.6769 50.3764C84.9305 45.5036 86.786 40.734 88.1759 36.22C89.3318 36.5558 90.4534 36.9097 91.5347 37.2832C101.991 40.8961 108.369 46.2372 108.369 50.3529C108.369 54.7367 101.481 60.4277 90.2962 64.1474ZM85.6557 73.3765C86.7865 79.1087 86.9476 84.2916 86.1986 88.3435C85.5259 91.9844 84.1727 94.4115 82.499 95.3839C78.9385 97.4526 71.3235 94.7637 63.111 87.6706C62.1401 86.8305 61.1927 85.9634 60.2699 85.0703C63.4539 81.5756 66.6357 77.5131 69.7412 73.0008C75.2036 72.5144 80.3641 71.7188 85.0439 70.6331C85.2694 71.5426 85.4734 72.4573 85.6557 73.3765ZM38.7257 95.0264C35.2468 96.2592 32.4759 96.2946 30.8009 95.3254C27.2369 93.2624 25.7552 85.298 27.7762 74.6151C28.0165 73.3527 28.2915 72.0972 28.6011 70.8502C33.2293 71.8779 38.3523 72.6168 43.8275 73.0624C46.9542 77.4776 50.2278 81.5358 53.5271 85.0894C52.8259 85.7703 52.1082 86.4338 51.3745 87.0793C46.9904 90.9252 42.5974 93.654 38.7257 95.0264ZM22.4277 64.1204C16.9181 62.2302 12.368 59.7738 9.24929 57.0933C6.44659 54.6848 5.032 52.2932 5.032 50.3529C5.032 46.2234 11.1657 40.9564 21.3962 37.3766C22.6378 36.9425 23.9372 36.5327 25.2856 36.1482C26.6997 40.7641 28.5544 45.5904 30.7925 50.4707C28.5252 55.4233 26.6441 60.3267 25.2163 64.997C24.2797 64.7278 23.3499 64.4355 22.4277 64.1204ZM27.891 26.7947C25.7676 15.9031 27.1777 7.68706 30.7268 5.62497C34.5067 3.42867 42.8653 6.56011 51.6755 14.4115C52.25 14.9247 52.8152 15.4482 53.3708 15.9819C50.0879 19.52 46.8443 23.548 43.7454 27.9371C38.4313 28.4315 33.3445 29.2253 28.6678 30.2889C28.3797 29.131 28.1206 27.9661 27.891 26.7951V26.7947ZM76.6301 38.8739C75.5255 36.9589 74.3798 35.0679 73.194 33.2024C76.7991 33.66 80.2533 34.2673 83.4969 35.0098C82.5233 38.1425 81.3095 41.4175 79.8808 44.7753C78.8365 42.7867 77.7527 40.8191 76.6301 38.8739ZM56.7544 19.4443C58.9806 21.8652 61.2104 24.5678 63.4036 27.5003C58.9546 27.2894 54.4982 27.2886 50.0491 27.4977C52.2444 24.5922 54.4932 21.8931 56.7544 19.4443ZM36.751 38.9071C35.6425 40.8367 34.5789 42.792 33.5613 44.7713C32.1559 41.4255 30.9532 38.1355 29.9712 34.9584C33.1949 34.2346 36.6327 33.6427 40.2149 33.1935C39.0159 35.0704 37.8609 36.9754 36.751 38.9067V38.9071ZM40.3177 67.8569C36.6169 67.4423 33.1274 66.881 29.9045 66.1767C30.902 62.9429 32.1312 59.5829 33.567 56.1653C34.5887 58.1461 35.6567 60.1026 36.77 62.033C37.9149 64.0176 39.1004 65.9614 40.3177 67.8569ZM56.8876 81.6027C54.5996 79.1255 52.3177 76.3848 50.0892 73.4372C52.2528 73.5222 54.4583 73.5656 56.7001 73.5656C59.0031 73.5656 61.2797 73.5138 63.5205 73.4137C61.3203 76.4145 59.0989 79.1592 56.8876 81.6027ZM79.9263 55.9907C81.4366 59.446 82.7095 62.7883 83.7203 65.9667C80.4444 66.7171 76.9073 67.3214 73.1804 67.7701C74.3746 65.8699 75.5311 63.9461 76.6491 61.9998C77.7858 60.0214 78.8784 58.0179 79.9263 55.9907ZM72.468 59.5794C70.7564 62.5634 68.9487 65.4909 67.0475 68.357C63.6038 68.6018 60.1524 68.7234 56.7001 68.7216C53.1837 68.7216 49.7635 68.6118 46.47 68.3974C44.5192 65.5378 42.677 62.6053 40.9471 59.6059H40.9476C39.2259 56.6225 37.6177 53.5745 36.1265 50.4685C37.6139 47.3618 39.2172 44.3124 40.933 41.3267L40.9326 41.3271C42.6477 38.3407 44.4753 35.4206 46.4113 32.5734C49.7714 32.3182 53.2172 32.1853 56.6996 32.1853H56.7001C60.1984 32.1853 63.6485 32.3195 67.0078 32.5765C68.9243 35.4195 70.7402 38.3295 72.4521 41.301C74.1736 44.2801 75.7981 47.3147 77.3231 50.3999C75.8138 53.5166 74.1944 56.5783 72.468 59.5794ZM82.4253 5.48056C86.2087 7.67067 87.6802 16.5024 85.303 28.0842C85.1512 28.8231 84.9808 29.5757 84.7954 30.339C80.1072 29.2528 75.0169 28.4452 69.6874 27.9433C66.5828 23.506 63.3656 19.4717 60.1361 15.9792C60.9825 15.1604 61.849 14.3628 62.7349 13.5871C71.0768 6.30141 78.8732 3.42468 82.4253 5.48056ZM56.7001 40.2263C62.2724 40.2263 66.7898 44.7603 66.7898 50.3529C66.7898 55.9456 62.2724 60.4795 56.7001 60.4795C51.1278 60.4795 46.6104 55.9456 46.6104 50.3529C46.6104 44.7603 51.1278 40.2263 56.7001 40.2263Z"
              fill="#00D8FF"/>
    </g>

    <g id="styledComponents">
        <path d="M44.284 229.416c-4.428 0-7.344 2.376-7.344 5.544 0 2.808 1.728 4.68 5.652 5.76 3.564 1.008 4.32 1.512 4.32 3.096 0 1.44-1.332 2.304-3.384 2.304-1.944 0-3.708-.756-5.184-1.872l-2.304 2.592c1.764 1.584 4.32 2.7 7.596 2.7 4.356 0 8.028-2.088 8.028-6.048 0-3.384-2.196-4.968-6.084-6.012-3.24-.9-3.996-1.476-3.996-2.736 0-1.152 1.044-1.908 2.88-1.908 1.692 0 3.204.54 4.788 1.548l1.8-2.7c-1.8-1.404-4.032-2.268-6.768-2.268zm20.412 15.732l1.62 2.952c-1.368.972-3.096 1.44-4.788 1.44-3.744-.036-5.724-2.16-5.724-6.228v-10.044h-2.988v-3.312h2.988v-4.212l4.608-.54v4.752h4.428l-.468 3.312h-3.96v9.936c0 1.872.612 2.628 2.016 2.628.72 0 1.44-.216 2.268-.684zm19.62-15.192l-6.192 19.116c-1.44 4.464-4.248 7.344-9.9 7.776l-.468-3.348c3.78-.576 5.004-1.8 6.084-4.5h-1.584l-6.048-19.044h4.896l4.14 15.984 4.32-15.984zm7.308 19.584a7.55 7.55 0 0 0 3.06-.648l-.972-3.24c-.324.108-.648.18-1.08.18-.756 0-1.08-.432-1.08-1.332v-22.68l-4.608.504v22.32c0 3.132 1.764 4.896 4.68 4.896zm21.744-10.512c0 .612-.072 1.368-.108 1.872h-11.952c.324 3.888 2.16 5.148 4.68 5.148 1.692 0 3.096-.54 4.752-1.692l1.908 2.628c-1.872 1.512-4.176 2.556-7.056 2.556-5.904 0-9.072-3.924-9.072-9.936 0-5.796 3.06-10.188 8.46-10.188 5.328 0 8.388 3.6 8.388 9.612zm-4.572-1.116v-.216c0-3.132-1.116-5.004-3.708-5.004-2.16 0-3.528 1.44-3.78 5.22zm20.124-16.092l4.608.504V249h-4.068l-.324-2.412c-1.152 1.728-2.988 2.952-5.436 2.952-4.752 0-7.236-3.996-7.236-10.044 0-5.868 2.952-10.08 7.668-10.08 2.016 0 3.6.864 4.788 2.052zm-3.924 24.228c1.692 0 2.844-.828 3.924-2.448v-8.712c-1.008-1.224-2.088-2.016-3.636-2.016-2.376 0-3.96 2.016-3.96 6.588 0 4.896 1.404 6.588 3.672 6.588zM44.44 265.416c-5.472 0-8.892 4.14-8.892 10.224s3.42 9.9 8.928 9.9c2.448 0 4.428-.792 6.156-2.196l-2.052-2.916c-1.404.9-2.412 1.368-3.852 1.368-2.592 0-4.284-1.62-4.284-6.228 0-4.572 1.62-6.516 4.284-6.516 1.44 0 2.592.432 3.852 1.368l2.052-2.772c-1.8-1.548-3.708-2.232-6.192-2.232zm17.316 0c5.616 0 8.928 3.816 8.928 10.044 0 6.012-3.348 10.08-8.964 10.08s-8.964-3.816-8.964-10.08c0-5.976 3.348-10.044 9-10.044zm0 3.492c-2.7 0-4.14 2.052-4.14 6.552 0 4.572 1.404 6.588 4.104 6.588s4.104-2.052 4.104-6.588-1.404-6.552-4.068-6.552zm33.444-3.492c-2.52 0-4.284 1.224-5.724 3.204-.72-2.016-2.376-3.204-4.608-3.204-2.412 0-4.14 1.116-5.508 3.024l-.36-2.484h-3.996V285h4.608v-13.248c1.044-1.764 2.016-2.88 3.636-2.88 1.116 0 2.088.684 2.088 3.06V285h4.608v-13.248c1.044-1.764 2.016-2.88 3.6-2.88 1.152 0 2.088.684 2.088 3.06V285h4.608v-13.788c0-3.6-2.016-5.796-5.04-5.796zm20.268 0c4.968 0 7.056 3.924 7.056 10.008 0 5.832-2.7 10.116-7.524 10.116-1.944 0-3.6-.684-4.788-2.088v8.892l-4.608.504v-26.892h4.032l.252 2.34c1.512-1.98 3.528-2.88 5.58-2.88zm-1.764 16.596c2.52 0 3.996-1.944 3.996-6.552 0-4.824-1.296-6.588-3.6-6.588-1.62 0-2.988 1.116-3.888 2.592v8.568c.9 1.332 2.052 1.98 3.492 1.98zm21.132-16.596c5.616 0 8.928 3.816 8.928 10.044 0 6.012-3.348 10.08-8.964 10.08s-8.964-3.816-8.964-10.08c0-5.976 3.348-10.044 9-10.044zm0 3.492c-2.7 0-4.14 2.052-4.14 6.552 0 4.572 1.404 6.588 4.104 6.588s4.104-2.052 4.104-6.588-1.404-6.552-4.068-6.552zm23.4-3.492c-2.412 0-4.32 1.116-5.796 3.024l-.36-2.484h-3.996V285h4.608v-13.248c1.116-1.764 2.34-2.88 3.996-2.88 1.44 0 2.34.684 2.34 3.06V285h4.608v-13.788c0-3.636-1.98-5.796-5.4-5.796zm26.388 9.612c0 .612-.072 1.368-.108 1.872h-11.952c.324 3.888 2.16 5.148 4.68 5.148 1.692 0 3.096-.54 4.752-1.692l1.908 2.628c-1.872 1.512-4.176 2.556-7.056 2.556-5.904 0-9.072-3.924-9.072-9.936 0-5.796 3.06-10.188 8.46-10.188 5.328 0 8.388 3.6 8.388 9.612zm-4.572-1.116v-.216c0-3.132-1.116-5.004-3.708-5.004-2.16 0-3.528 1.44-3.78 5.22zm18.864-8.496c-2.412 0-4.32 1.116-5.796 3.024l-.36-2.484h-3.996V285h4.608v-13.248c1.116-1.764 2.34-2.88 3.996-2.88 1.44 0 2.34.684 2.34 3.06V285h4.608v-13.788c0-3.636-1.98-5.796-5.4-5.796zm20.052 15.732c-.828.468-1.548.684-2.268.684-1.404 0-2.016-.756-2.016-2.628v-9.936h3.96l.468-3.312h-4.428v-4.752l-4.608.54v4.212h-2.988v3.312h2.988v10.044c0 4.068 1.98 6.192 5.724 6.228 1.692 0 3.42-.468 4.788-1.44zm10.224-15.732c-4.428 0-7.344 2.376-7.344 5.544 0 2.808 1.728 4.68 5.652 5.76 3.564 1.008 4.32 1.512 4.32 3.096 0 1.44-1.332 2.304-3.384 2.304-1.944 0-3.708-.756-5.184-1.872l-2.304 2.592c1.764 1.584 4.32 2.7 7.596 2.7 4.356 0 8.028-2.088 8.028-6.048 0-3.384-2.196-4.968-6.084-6.012-3.24-.9-3.996-1.476-3.996-2.736 0-1.152 1.044-1.908 2.88-1.908 1.692 0 3.204.54 4.788 1.548l1.8-2.7c-1.8-1.404-4.032-2.268-6.768-2.268zM79.8 87.2l-36.2 22.5 36.2 22.9-3.7 4.6-37.7-23.6v-7.9l38.1-23.6m189.3 22.7v7.8l-37.7 23.6-3.7-4.9 36.1-22.6L224.4 86l3.2-4.9"
              fill="#4a4a4a"/>
    </g>

    <g id="ts">
        <path class="st1"
              d="M87.7 200.7V217h52v148h36.9V217h52v-16c0-9 0-16.3-.4-16.5 0-.3-31.7-.4-70.2-.4l-70 .3v16.4l-.3-.1zM321.4 184c10.2 2.4 18 7 25 14.3 3.7 4 9.2 11 9.6 12.8 0 .6-17.3 12.3-27.8 18.8-.4.3-2-1.4-3.6-4-5.2-7.4-10.5-10.6-18.8-11.2-12-.8-20 5.5-20 16 0 3.2.6 5 1.8 7.6 2.7 5.5 7.7 8.8 23.2 15.6 28.6 12.3 41 20.4 48.5 32 8.5 13 10.4 33.4 4.7 48.7-6.4 16.7-22 28-44.3 31.7-7 1.2-23 1-30.5-.3-16-3-31.3-11-40.7-21.3-3.7-4-10.8-14.7-10.4-15.4l3.8-2.4 15-8.7 11.3-6.6 2.6 3.5c3.3 5.2 10.7 12.2 15 14.6 13 6.7 30.4 5.8 39-2 3.7-3.4 5.3-7 5.3-12 0-4.6-.7-6.7-3-10.2-3.2-4.4-9.6-8-27.6-16-20.7-8.8-29.5-14.4-37.7-23-4.7-5.2-9-13.3-11-20-1.5-5.8-2-20-.6-25.7 4.3-20 19.4-34 41-38 7-1.4 23.5-.8 30.4 1l-.2.2z"/>
    </g>

    <g id="redux">
        <path d="M177.381 169.733c9.447-.978 16.614-9.122 16.288-18.896-.325-9.773-8.47-17.592-18.243-17.592h-.651c-10.1.326-17.918 8.796-17.592 18.895.326 4.887 2.28 9.122 5.212 12.054-11.076 21.828-28.016 37.791-53.426 51.148-17.266 9.122-35.183 12.38-53.1 10.1-14.66-1.955-26.062-8.47-33.23-19.222-10.424-15.963-11.401-33.23-2.605-50.496 6.19-12.38 15.962-21.502 22.152-26.063-1.303-4.235-3.258-11.402-4.235-16.614-47.237 34.207-42.35 80.468-28.016 102.295 10.75 16.29 32.577 26.389 56.684 26.389 6.515 0 13.03-.652 19.546-2.28 41.699-8.145 73.299-32.905 91.216-69.718zm57.336-40.397c-24.759-28.995-61.245-44.958-102.944-44.958h-5.212c-2.932-5.864-9.122-9.774-15.963-9.774h-.652C99.848 74.93 92.03 83.4 92.355 93.5c.326 9.773 8.47 17.592 18.243 17.592h.651c7.167-.326 13.357-4.887 15.963-11.077h5.864c24.759 0 48.214 7.167 69.39 21.176 16.288 10.751 28.016 24.76 34.531 41.7 5.538 13.683 5.212 27.04-.652 38.443-9.121 17.266-24.432 26.714-44.63 26.714-13.031 0-25.41-3.91-31.926-6.842-3.583 3.258-10.099 8.47-14.66 11.729 14.009 6.515 28.343 10.099 42.025 10.099 31.274 0 54.404-17.267 63.2-34.533 9.447-18.896 8.795-51.474-15.637-79.165zM69.225 175.27c.326 9.774 8.47 17.592 18.243 17.592h.652c10.099-.325 17.917-8.796 17.591-18.895-.325-9.774-8.47-17.592-18.243-17.592h-.651c-.652 0-1.63 0-2.28.325-13.357-22.153-18.895-46.26-16.94-72.323 1.302-19.547 7.818-36.488 19.22-50.497 9.447-12.054 27.69-17.918 40.07-18.243 34.531-.652 49.19 42.351 50.168 59.618 4.235.977 11.402 3.258 16.289 4.887C189.434 27.366 156.857 0 125.584 0c-29.32 0-56.359 21.176-67.11 52.451-14.985 41.7-5.212 81.771 13.031 113.372-1.628 2.28-2.606 5.864-2.28 9.448z"
              fill="#764ABC"/>
    </g>

    <g id="materialUi">
        <path d="M0 259.8V0l225 129.9v86.6L75 129.9v173.2z" fill="#00b0ff"/>
        <path d="M225 129.9L450 0v259.8l-150 86.6-75-43.3 150-86.6v-86.6l-150 86.6z" fill="#0081cb"/>
        <path d="M225 303.1v86.6l150 86.6v-86.6z" fill="#00b0ff"/>
        <path d="M375 476.3l225-129.9V173.2l-75 43.3v86.6l-150 86.6zm150-346.4V43.3L600 0v86.6z" fill="#0081cb"/>
    </g>

    <g id="storybook">
        <path d="M9.87245893,293.324145 L0.0114611411,30.5732167 C-0.314208957,21.8955842 6.33948896,14.5413918 15.0063196,13.9997149 L238.494389,0.0317105427 C247.316188,-0.519651867 254.914637,6.18486163 255.466,15.0066607 C255.486773,15.339032 255.497167,15.6719708 255.497167,16.0049907 L255.497167,302.318596 C255.497167,311.157608 248.331732,318.323043 239.492719,318.323043 C239.253266,318.323043 239.013844,318.317669 238.774632,318.306926 L25.1475605,308.712253 C16.8276309,308.338578 10.1847994,301.646603 9.87245893,293.324145 L9.87245893,293.324145 Z"
              id="path-1">

        </path>
        <path d="M188.665358,39.126973 L190.191903,2.41148534 L220.883535,0 L222.205755,37.8634126 C222.251771,39.1811466 221.22084,40.2866846 219.903106,40.3327009 C219.338869,40.3524045 218.785907,40.1715096 218.342409,39.8221376 L206.506729,30.4984116 L192.493574,41.1282444 C191.443077,41.9251106 189.945493,41.7195021 189.148627,40.6690048 C188.813185,40.2267976 188.6423,39.6815326 188.665358,39.126973 Z M149.413703,119.980309 C149.413703,126.206975 191.355678,123.222696 196.986019,118.848893 C196.986019,76.4467826 174.234041,54.1651411 132.57133,54.1651411 C90.9086182,54.1651411 67.5656805,76.7934542 67.5656805,110.735941 C67.5656805,169.85244 147.345341,170.983856 147.345341,203.229219 C147.345341,212.280549 142.913138,217.654777 133.162291,217.654777 C120.456641,217.654777 115.433477,211.165914 116.024438,189.103298 C116.024438,184.317101 67.5656805,182.824962 66.0882793,189.103298 C62.3262146,242.56887 95.6363019,257.990394 133.753251,257.990394 C170.688279,257.990394 199.645341,238.303123 199.645341,202.663511 C199.645341,139.304202 118.683759,141.001326 118.683759,109.604526 C118.683759,96.8760922 128.139127,95.178968 133.753251,95.178968 C139.662855,95.178968 150.300143,96.2205679 149.413703,119.980309 Z"
              fill="#FFFFFF" fill-rule="nonzero" mask="url(#mask-2)">
        </path>
    </g>

    <g id="figma">
        <path fill="#1ABCFE"
              d="M8.55 8c0-1.289 1.019-2.333 2.275-2.333C12.082 5.667 13.1 6.71 13.1 8c0 1.289-1.018 2.333-2.275 2.333C9.57 10.333 8.55 9.29 8.55 8z"/>
        <path fill="#0ACF83"
              d="M4 12.667c0-1.289 1.019-2.334 2.275-2.334H8.55v2.334C8.55 13.955 7.531 15 6.275 15S4 13.955 4 12.667z"/>
        <path fill="#FF7262"
              d="M8.55 1v4.667h2.275c1.257 0 2.275-1.045 2.275-2.334C13.1 2.045 12.082 1 10.825 1H8.55z"/>
        <path fill="#F24E1E" d="M4 3.333c0 1.289 1.019 2.334 2.275 2.334H8.55V1H6.275C5.019 1 4 2.045 4 3.333z"/>
        <path fill="#A259FF" d="M4 8c0 1.289 1.019 2.333 2.275 2.333H8.55V5.667H6.275C5.019 5.667 4 6.71 4 8z"/>
    </g>

    <g id="instagram">
        <path d="M30 24.5C30 25.6867 29.6481 26.8467 28.9888 27.8334C28.3295 28.8201 27.3925 29.5892 26.2961 30.0433C25.1997 30.4974 23.9933 30.6162 22.8295 30.3847C21.6656 30.1532 20.5965 29.5818 19.7574 28.7426C18.9182 27.9035 18.3468 26.8344 18.1153 25.6705C17.8838 24.5067 18.0026 23.3003 18.4567 22.2039C18.9108 21.1075 19.6799 20.1705 20.6666 19.5112C21.6533 18.8519 22.8133 18.5 24 18.5C25.5907 18.5018 27.1158 19.1346 28.2406 20.2594C29.3654 21.3842 29.9982 22.9093 30 24.5ZM42.75 16.25V32.75C42.7468 35.5338 41.6396 38.2027 39.6711 40.1711C37.7027 42.1396 35.0338 43.2468 32.25 43.25H15.75C12.9662 43.2468 10.2973 42.1396 8.32889 40.1711C6.36044 38.2027 5.25318 35.5338 5.25 32.75V16.25C5.25318 13.4662 6.36044 10.7973 8.32889 8.82889C10.2973 6.86044 12.9662 5.75318 15.75 5.75H32.25C35.0338 5.75318 37.7027 6.86044 39.6711 8.82889C41.6396 10.7973 42.7468 13.4662 42.75 16.25ZM33 24.5C33 22.72 32.4722 20.9799 31.4832 19.4999C30.4943 18.0198 29.0887 16.8663 27.4442 16.1851C25.7996 15.5039 23.99 15.3257 22.2442 15.6729C20.4984 16.0202 18.8947 16.8774 17.636 18.136C16.3774 19.3947 15.5202 20.9984 15.1729 22.7442C14.8257 24.49 15.0039 26.2996 15.6851 27.9442C16.3663 29.5887 17.5198 30.9943 18.9999 31.9832C20.4799 32.9722 22.22 33.5 24 33.5C26.3861 33.4973 28.6738 32.5482 30.361 30.861C32.0482 29.1738 32.9973 26.8861 33 24.5ZM36 14.75C36 14.305 35.868 13.87 35.6208 13.5C35.3736 13.13 35.0222 12.8416 34.611 12.6713C34.1999 12.501 33.7475 12.4564 33.311 12.5432C32.8746 12.63 32.4737 12.8443 32.159 13.159C31.8443 13.4737 31.63 13.8746 31.5432 14.311C31.4564 14.7475 31.501 15.1999 31.6713 15.611C31.8416 16.0222 32.13 16.3736 32.5 16.6208C32.87 16.868 33.305 17 33.75 17C34.3467 17 34.919 16.7629 35.341 16.341C35.7629 15.919 36 15.3467 36 14.75Z"
              fill="#25282B"/>
    </g>

    <g id="linkedin">
        <path d="M5 8.22175C5 6.71837 6.24925 5.5 7.79062 5.5H40.2094C41.7507 5.5 43 6.71837 43 8.22175V40.7783C43 42.2816 41.7507 43.5 40.2094 43.5H7.79062C6.24925 43.5 5 42.2816 5 40.7783V8.22175ZM16.7396 37.3108V20.1514H11.0373V37.3108H16.7396ZM13.8896 17.8073C15.8775 17.8073 17.1149 16.4915 17.1149 14.8433C17.0792 13.1594 15.8799 11.8793 13.9276 11.8793C11.9754 11.8793 10.7 13.1617 10.7 14.8433C10.7 16.4915 11.9374 17.8073 13.8516 17.8073H13.8896ZM25.5461 37.3108V27.7276C25.5461 27.2146 25.5841 26.7016 25.7361 26.3359C26.147 25.3123 27.0851 24.2506 28.6621 24.2506C30.726 24.2506 31.5501 25.8229 31.5501 28.1314V37.3108H37.2525V27.4688C37.2525 22.1962 34.4405 19.7453 30.688 19.7453C27.6623 19.7453 26.3061 21.4078 25.5461 22.5786V22.638H25.5081C25.5207 22.6182 25.5334 22.5984 25.5461 22.5786V20.1514H19.8461C19.9174 21.7616 19.8461 37.3108 19.8461 37.3108H25.5461Z"
              fill="#25282B"/>
    </g>

    <g id="mail">
        <path fill-rule="evenodd" clip-rule="evenodd"
              d="M3.13125 12.6467C3.3959 11.4686 4.04647 10.4168 4.97642 9.66349C5.90637 8.91014 7.06057 8.49992 8.25 8.5H39.75C40.9394 8.49992 42.0936 8.91014 43.0236 9.66349C43.9535 10.4168 44.6041 11.4686 44.8687 12.6467L24 25.604L3.13125 12.6467ZM3 15.692V34.636L18.2329 25.148L3 15.692ZM20.7476 26.7133L3.50138 37.452C3.92748 38.3648 4.60001 39.1358 5.44068 39.6754C6.28135 40.215 7.25558 40.501 8.25 40.5H39.75C40.7443 40.5002 41.7181 40.2136 42.5583 39.6736C43.3985 39.1335 44.0705 38.3622 44.496 37.4493L27.2498 26.7107L24 28.7293L20.7476 26.7107V26.7133ZM29.7671 25.1507L45 34.636V15.692L29.7671 25.148V25.1507Z"
              fill="#25282B"/>
    </g>

</svg>
